<svg width="14" height="18" viewBox="0 0 14 18" fill="none" xmlns="http://www.w3.org/2000/svg">
<g clip-path="url(#clip0)">
<path d="M4.37524 2.53125C4.37524 1.13326 5.55047 0 7.00024 0C8.45 0 9.62524 1.13326 9.62524 2.53125C9.62524 3.9292 8.45 5.0625 7.00024 5.0625C5.55047 5.0625 4.37524 3.9292 4.37524 2.53125ZM13.6585 2.57952C13.2029 2.14017 12.4642 2.14017 12.0086 2.57952L8.85031 5.625H5.15012L1.99184 2.57952C1.53626 2.14017 0.797542 2.14017 0.341959 2.57952C-0.113661 3.01887 -0.113661 3.73117 0.341959 4.17052L3.7919 7.49721V16.875C3.7919 17.4963 4.31424 18 4.95857 18H5.5419C6.18623 18 6.70857 17.4963 6.70857 16.875V12.9375H7.2919V16.875C7.2919 17.4963 7.81424 18 8.45857 18H9.0419C9.68623 18 10.2086 17.4963 10.2086 16.875V7.49721L13.6585 4.17048C14.1141 3.73113 14.1141 3.01887 13.6585 2.57952V2.57952Z" fill="#0065FC"/>
</g>
<defs>
<clipPath id="clip0">
<rect width="14" height="18" fill="white"/>
</clipPath>
</defs>
</svg>
