<svg width="18" height="17" viewBox="0 0 18 17" fill="none" xmlns="http://www.w3.org/2000/svg">
<path d="M9.34931 6.87503L14.5556 8.75764V16.4375C14.5556 16.5867 14.497 16.7298 14.3928 16.8353C14.2887 16.9408 14.1473 17 14 17H11.7778C11.6304 17 11.4891 16.9408 11.3849 16.8353C11.2808 16.7298 11.2222 16.5867 11.2222 16.4375V12.5H5.66667V16.4375C5.66667 16.5867 5.60814 16.7298 5.50395 16.8353C5.39976 16.9408 5.25846 17 5.11111 17H2.88889C2.74155 17 2.60024 16.9408 2.49606 16.8353C2.39187 16.7298 2.33334 16.5867 2.33334 16.4375V8.91725C1.04306 8.45143 0.111115 7.21464 0.111115 5.75003C0.111115 5.45166 0.228178 5.16551 0.436551 4.95453C0.644925 4.74355 0.927541 4.62503 1.22223 4.62503C1.51691 4.62503 1.79953 4.74355 2.0079 4.95453C2.21627 5.16551 2.33334 5.45166 2.33334 5.75003C2.33389 6.04822 2.45113 6.33405 2.65938 6.54491C2.86764 6.75576 3.14993 6.87447 3.44445 6.87503H9.34931ZM17.8889 2.93753V4.06253C17.8889 4.65926 17.6548 5.23156 17.238 5.65352C16.8213 6.07547 16.256 6.31253 15.6667 6.31253H14.5556V7.56339L10.1111 5.95639V0.687528C10.1111 0.186552 10.709 -0.064464 11.0594 0.289911L12.0066 1.25003H13.8688C14.2476 1.25003 14.6934 1.52847 14.8625 1.87194L15.1111 2.37503H17.3333C17.4807 2.37503 17.622 2.43429 17.7262 2.53978C17.8304 2.64527 17.8889 2.78834 17.8889 2.93753ZM14 2.93753C14 2.82628 13.9674 2.71752 13.9064 2.62502C13.8453 2.53252 13.7586 2.46042 13.6571 2.41785C13.5555 2.37527 13.4438 2.36413 13.3361 2.38584C13.2283 2.40754 13.1293 2.46111 13.0516 2.53978C12.9739 2.61845 12.921 2.71868 12.8996 2.82779C12.8781 2.9369 12.8891 3.05 12.9312 3.15279C12.9732 3.25557 13.0444 3.34342 13.1358 3.40523C13.2272 3.46704 13.3346 3.50003 13.4444 3.50003C13.5918 3.50003 13.7331 3.44076 13.8373 3.33528C13.9415 3.22979 14 3.08671 14 2.93753Z" fill="#0065FC"/>
</svg>
