<svg width="22" height="18" viewBox="0 0 22 18" fill="none" xmlns="http://www.w3.org/2000/svg">
<g clip-path="url(#clip0)">
<path d="M21.3524 1.91461C20.019 1.34262 18.6845 1.125 17.3508 1.125C13.1168 1.12465 8.88319 3.31664 4.64922 3.31664C3.58737 3.31664 2.52622 3.17883 1.46437 2.8343C1.34509 2.79563 1.22547 2.77734 1.10859 2.77734C0.517 2.77734 0 3.24562 0 3.89566V15.0493C0 15.4934 0.248531 15.9142 0.647625 16.085C1.98103 16.6574 3.31547 16.875 4.64922 16.875C8.88319 16.875 13.1172 14.683 17.3511 14.683C18.413 14.683 19.4741 14.8208 20.536 15.1654C20.6552 15.204 20.7749 15.2223 20.8917 15.2223C21.4833 15.2223 22.0003 14.754 22.0003 14.104V2.95066C22 2.50629 21.7515 2.08582 21.3524 1.91461V1.91461ZM1.65 4.64836C2.34162 4.82555 3.0635 4.91449 3.806 4.9623C3.60387 5.99555 2.71562 6.77426 1.65 6.77426V4.64836ZM1.65 14.6679V12.9881C2.83147 12.9881 3.78744 13.9468 3.84003 15.1467C3.06556 15.0831 2.34162 14.9249 1.65 14.6679V14.6679ZM11 12.375C9.48097 12.375 8.25 10.8636 8.25 9C8.25 7.13602 9.48131 5.625 11 5.625C12.5187 5.625 13.75 7.13602 13.75 9C13.75 10.8643 12.5183 12.375 11 12.375ZM20.35 13.3516C19.7477 13.1973 19.1225 13.1108 18.4827 13.0549C18.6845 12.138 19.4281 11.442 20.35 11.3224V13.3516ZM20.35 5.0509C19.2882 4.91344 18.4642 4.00676 18.4315 2.88703C19.1032 2.96332 19.7409 3.10605 20.35 3.33211V5.0509Z" fill="#0065FC"/>
</g>
<defs>
<clipPath id="clip0">
<rect width="22" height="18" fill="white"/>
</clipPath>
</defs>
</svg>
